<mxfile host="app.diagrams.net" modified="2021-11-17T03:43:38.219Z" agent="5.0 (Windows NT 10.0; Win64; x64) AppleWebKit/537.36 (KHTML, like Gecko) Chrome/95.0.4638.69 Safari/537.36" etag="bfDC1IhSWGQK4Ia1G4Lt" version="15.5.6" type="github" pages="2">
  <diagram id="13QN0VAtfzmGpklO6pLC" name="Page-1">
    <mxGraphModel dx="1422" dy="729" grid="1" gridSize="10" guides="1" tooltips="1" connect="1" arrows="1" fold="1" page="1" pageScale="1" pageWidth="850" pageHeight="1100" math="0" shadow="0">
      <root>
        <mxCell id="0" />
        <mxCell id="1" parent="0" />
        <mxCell id="3hb4H-WxjuRXCoAR_48c-1" value="" style="rounded=1;whiteSpace=wrap;html=1;" vertex="1" parent="1">
          <mxGeometry x="210" y="100" width="420" height="470" as="geometry" />
        </mxCell>
        <mxCell id="3hb4H-WxjuRXCoAR_48c-2" value="Header" style="rounded=1;whiteSpace=wrap;html=1;" vertex="1" parent="1">
          <mxGeometry x="250" y="140" width="330" height="60" as="geometry" />
        </mxCell>
        <mxCell id="3hb4H-WxjuRXCoAR_48c-3" value="Landing" style="rounded=1;whiteSpace=wrap;html=1;" vertex="1" parent="1">
          <mxGeometry x="255" y="280" width="330" height="60" as="geometry" />
        </mxCell>
        <mxCell id="3hb4H-WxjuRXCoAR_48c-4" value="Footer" style="rounded=1;whiteSpace=wrap;html=1;" vertex="1" parent="1">
          <mxGeometry x="255" y="430" width="330" height="60" as="geometry" />
        </mxCell>
        <mxCell id="_Fy7zqtgSJhhipeUelZU-1" value="" style="rounded=1;whiteSpace=wrap;html=1;" vertex="1" parent="1">
          <mxGeometry x="150" y="650" width="460" height="400" as="geometry" />
        </mxCell>
        <mxCell id="_Fy7zqtgSJhhipeUelZU-2" value="" style="endArrow=none;html=1;rounded=0;" edge="1" parent="1" source="_Fy7zqtgSJhhipeUelZU-1">
          <mxGeometry width="50" height="50" relative="1" as="geometry">
            <mxPoint x="240" y="700" as="sourcePoint" />
            <mxPoint x="290" y="650" as="targetPoint" />
          </mxGeometry>
        </mxCell>
        <mxCell id="_Fy7zqtgSJhhipeUelZU-3" value="" style="endArrow=none;html=1;rounded=0;" edge="1" parent="1">
          <mxGeometry width="50" height="50" relative="1" as="geometry">
            <mxPoint x="310" y="1030" as="sourcePoint" />
            <mxPoint x="310" y="650" as="targetPoint" />
          </mxGeometry>
        </mxCell>
        <mxCell id="_Fy7zqtgSJhhipeUelZU-4" value="" style="endArrow=none;html=1;rounded=0;" edge="1" parent="1">
          <mxGeometry width="50" height="50" relative="1" as="geometry">
            <mxPoint x="310" y="770" as="sourcePoint" />
            <mxPoint x="620" y="770" as="targetPoint" />
          </mxGeometry>
        </mxCell>
        <mxCell id="_Fy7zqtgSJhhipeUelZU-5" value="" style="endArrow=none;html=1;rounded=0;entryX=1.011;entryY=0.798;entryDx=0;entryDy=0;entryPerimeter=0;" edge="1" parent="1" target="_Fy7zqtgSJhhipeUelZU-1">
          <mxGeometry width="50" height="50" relative="1" as="geometry">
            <mxPoint x="310" y="970" as="sourcePoint" />
            <mxPoint x="360" y="920" as="targetPoint" />
          </mxGeometry>
        </mxCell>
      </root>
    </mxGraphModel>
  </diagram>
  <diagram id="URmQIJIHe5QUEUu3eU_C" name="Page-2">
    <mxGraphModel dx="2035" dy="655" grid="1" gridSize="10" guides="1" tooltips="1" connect="1" arrows="1" fold="1" page="1" pageScale="1" pageWidth="850" pageHeight="1100" math="0" shadow="0">
      <root>
        <mxCell id="pjvYtTloe9TvyBzcQSmq-0" />
        <mxCell id="pjvYtTloe9TvyBzcQSmq-1" parent="pjvYtTloe9TvyBzcQSmq-0" />
        <mxCell id="pjvYtTloe9TvyBzcQSmq-5" value="" style="edgeStyle=orthogonalEdgeStyle;rounded=0;orthogonalLoop=1;jettySize=auto;html=1;" edge="1" parent="pjvYtTloe9TvyBzcQSmq-1" source="pjvYtTloe9TvyBzcQSmq-6" target="pjvYtTloe9TvyBzcQSmq-13">
          <mxGeometry relative="1" as="geometry" />
        </mxCell>
        <mxCell id="pjvYtTloe9TvyBzcQSmq-6" value="DevConnector" style="rounded=1;whiteSpace=wrap;html=1;" vertex="1" parent="pjvYtTloe9TvyBzcQSmq-1">
          <mxGeometry x="340" y="50" width="120" height="60" as="geometry" />
        </mxCell>
        <mxCell id="pjvYtTloe9TvyBzcQSmq-7" value="" style="edgeStyle=orthogonalEdgeStyle;rounded=0;orthogonalLoop=1;jettySize=auto;html=1;" edge="1" parent="pjvYtTloe9TvyBzcQSmq-1" source="pjvYtTloe9TvyBzcQSmq-13" target="pjvYtTloe9TvyBzcQSmq-16">
          <mxGeometry relative="1" as="geometry" />
        </mxCell>
        <mxCell id="pjvYtTloe9TvyBzcQSmq-8" value="" style="edgeStyle=orthogonalEdgeStyle;rounded=0;orthogonalLoop=1;jettySize=auto;html=1;" edge="1" parent="pjvYtTloe9TvyBzcQSmq-1" source="pjvYtTloe9TvyBzcQSmq-13" target="pjvYtTloe9TvyBzcQSmq-17">
          <mxGeometry relative="1" as="geometry" />
        </mxCell>
        <mxCell id="pjvYtTloe9TvyBzcQSmq-9" value="" style="edgeStyle=orthogonalEdgeStyle;rounded=0;orthogonalLoop=1;jettySize=auto;html=1;" edge="1" parent="pjvYtTloe9TvyBzcQSmq-1" source="pjvYtTloe9TvyBzcQSmq-13" target="pjvYtTloe9TvyBzcQSmq-21">
          <mxGeometry relative="1" as="geometry" />
        </mxCell>
        <mxCell id="pjvYtTloe9TvyBzcQSmq-10" value="" style="edgeStyle=orthogonalEdgeStyle;rounded=0;orthogonalLoop=1;jettySize=auto;html=1;" edge="1" parent="pjvYtTloe9TvyBzcQSmq-1" source="pjvYtTloe9TvyBzcQSmq-13" target="pjvYtTloe9TvyBzcQSmq-22">
          <mxGeometry relative="1" as="geometry" />
        </mxCell>
        <mxCell id="pjvYtTloe9TvyBzcQSmq-11" style="edgeStyle=orthogonalEdgeStyle;rounded=0;orthogonalLoop=1;jettySize=auto;html=1;entryX=0.5;entryY=0;entryDx=0;entryDy=0;" edge="1" parent="pjvYtTloe9TvyBzcQSmq-1" source="pjvYtTloe9TvyBzcQSmq-13" target="pjvYtTloe9TvyBzcQSmq-23">
          <mxGeometry relative="1" as="geometry" />
        </mxCell>
        <mxCell id="pjvYtTloe9TvyBzcQSmq-12" style="edgeStyle=orthogonalEdgeStyle;rounded=0;orthogonalLoop=1;jettySize=auto;html=1;entryX=0.5;entryY=0;entryDx=0;entryDy=0;" edge="1" parent="pjvYtTloe9TvyBzcQSmq-1" source="pjvYtTloe9TvyBzcQSmq-13" target="pjvYtTloe9TvyBzcQSmq-24">
          <mxGeometry relative="1" as="geometry" />
        </mxCell>
        <mxCell id="pjvYtTloe9TvyBzcQSmq-13" value="appmodule" style="whiteSpace=wrap;html=1;rounded=1;" vertex="1" parent="pjvYtTloe9TvyBzcQSmq-1">
          <mxGeometry x="340" y="190" width="120" height="60" as="geometry" />
        </mxCell>
        <mxCell id="pjvYtTloe9TvyBzcQSmq-14" value="1. profile&lt;br&gt;2. dashboard&lt;br&gt;3. post&lt;br&gt;4. comments&lt;br&gt;5. home page(common content)&lt;br&gt;6. user" style="rounded=1;whiteSpace=wrap;html=1;" vertex="1" parent="pjvYtTloe9TvyBzcQSmq-1">
          <mxGeometry x="-420" y="200" width="170" height="220" as="geometry" />
        </mxCell>
        <mxCell id="pjvYtTloe9TvyBzcQSmq-15" value="" style="edgeStyle=orthogonalEdgeStyle;rounded=0;orthogonalLoop=1;jettySize=auto;html=1;" edge="1" parent="pjvYtTloe9TvyBzcQSmq-1" source="pjvYtTloe9TvyBzcQSmq-16" target="pjvYtTloe9TvyBzcQSmq-30">
          <mxGeometry relative="1" as="geometry" />
        </mxCell>
        <mxCell id="pjvYtTloe9TvyBzcQSmq-16" value="core module(common stuff for our application)" style="whiteSpace=wrap;html=1;rounded=1;fillColor=#dae8fc;strokeColor=#6c8ebf;" vertex="1" parent="pjvYtTloe9TvyBzcQSmq-1">
          <mxGeometry x="-40" y="320" width="120" height="60" as="geometry" />
        </mxCell>
        <mxCell id="pjvYtTloe9TvyBzcQSmq-17" value="user module(register, login , forgot password&amp;nbsp; etc)" style="whiteSpace=wrap;html=1;rounded=1;fillColor=#dae8fc;strokeColor=#6c8ebf;" vertex="1" parent="pjvYtTloe9TvyBzcQSmq-1">
          <mxGeometry x="140" y="320" width="120" height="60" as="geometry" />
        </mxCell>
        <mxCell id="pjvYtTloe9TvyBzcQSmq-18" value="" style="edgeStyle=orthogonalEdgeStyle;rounded=0;orthogonalLoop=1;jettySize=auto;html=1;" edge="1" parent="pjvYtTloe9TvyBzcQSmq-1" source="pjvYtTloe9TvyBzcQSmq-21" target="pjvYtTloe9TvyBzcQSmq-25">
          <mxGeometry relative="1" as="geometry" />
        </mxCell>
        <mxCell id="pjvYtTloe9TvyBzcQSmq-19" value="" style="edgeStyle=orthogonalEdgeStyle;rounded=0;orthogonalLoop=1;jettySize=auto;html=1;" edge="1" parent="pjvYtTloe9TvyBzcQSmq-1" source="pjvYtTloe9TvyBzcQSmq-21" target="pjvYtTloe9TvyBzcQSmq-26">
          <mxGeometry relative="1" as="geometry" />
        </mxCell>
        <mxCell id="pjvYtTloe9TvyBzcQSmq-20" style="edgeStyle=orthogonalEdgeStyle;rounded=0;orthogonalLoop=1;jettySize=auto;html=1;" edge="1" parent="pjvYtTloe9TvyBzcQSmq-1" source="pjvYtTloe9TvyBzcQSmq-21" target="pjvYtTloe9TvyBzcQSmq-27">
          <mxGeometry relative="1" as="geometry">
            <mxPoint x="400" y="520" as="targetPoint" />
          </mxGeometry>
        </mxCell>
        <mxCell id="pjvYtTloe9TvyBzcQSmq-21" value="Dashboard" style="whiteSpace=wrap;html=1;rounded=1;fillColor=#dae8fc;strokeColor=#6c8ebf;" vertex="1" parent="pjvYtTloe9TvyBzcQSmq-1">
          <mxGeometry x="340" y="330" width="120" height="60" as="geometry" />
        </mxCell>
        <mxCell id="pjvYtTloe9TvyBzcQSmq-22" value="profile" style="whiteSpace=wrap;html=1;rounded=1;fillColor=#fff2cc;strokeColor=#d6b656;" vertex="1" parent="pjvYtTloe9TvyBzcQSmq-1">
          <mxGeometry x="560" y="330" width="120" height="60" as="geometry" />
        </mxCell>
        <mxCell id="pjvYtTloe9TvyBzcQSmq-23" value="post" style="rounded=1;whiteSpace=wrap;html=1;fillColor=#fff2cc;strokeColor=#d6b656;" vertex="1" parent="pjvYtTloe9TvyBzcQSmq-1">
          <mxGeometry x="720" y="330" width="120" height="60" as="geometry" />
        </mxCell>
        <mxCell id="pjvYtTloe9TvyBzcQSmq-24" value="comments" style="rounded=1;whiteSpace=wrap;html=1;fillColor=#fff2cc;strokeColor=#d6b656;" vertex="1" parent="pjvYtTloe9TvyBzcQSmq-1">
          <mxGeometry x="900" y="330" width="120" height="60" as="geometry" />
        </mxCell>
        <mxCell id="pjvYtTloe9TvyBzcQSmq-25" value="adminDashboard" style="whiteSpace=wrap;html=1;rounded=1;fillColor=#dae8fc;strokeColor=#6c8ebf;" vertex="1" parent="pjvYtTloe9TvyBzcQSmq-1">
          <mxGeometry x="220" y="460" width="120" height="60" as="geometry" />
        </mxCell>
        <mxCell id="pjvYtTloe9TvyBzcQSmq-26" value="userDashboard" style="whiteSpace=wrap;html=1;rounded=1;fillColor=#fff2cc;strokeColor=#d6b656;" vertex="1" parent="pjvYtTloe9TvyBzcQSmq-1">
          <mxGeometry x="450" y="460" width="120" height="60" as="geometry" />
        </mxCell>
        <mxCell id="pjvYtTloe9TvyBzcQSmq-27" value="agentDashboard" style="rounded=1;whiteSpace=wrap;html=1;fillColor=#fff2cc;strokeColor=#d6b656;" vertex="1" parent="pjvYtTloe9TvyBzcQSmq-1">
          <mxGeometry x="340" y="550" width="120" height="60" as="geometry" />
        </mxCell>
        <mxCell id="pjvYtTloe9TvyBzcQSmq-28" value="all components should be created &amp;amp; segregated under the components folder." style="rounded=1;whiteSpace=wrap;html=1;fillColor=#f8cecc;strokeColor=#b85450;" vertex="1" parent="pjvYtTloe9TvyBzcQSmq-1">
          <mxGeometry x="-380" y="70" width="320" height="60" as="geometry" />
        </mxCell>
        <mxCell id="pjvYtTloe9TvyBzcQSmq-29" value="" style="edgeStyle=orthogonalEdgeStyle;rounded=0;orthogonalLoop=1;jettySize=auto;html=1;" edge="1" parent="pjvYtTloe9TvyBzcQSmq-1" source="pjvYtTloe9TvyBzcQSmq-30" target="pjvYtTloe9TvyBzcQSmq-31">
          <mxGeometry relative="1" as="geometry" />
        </mxCell>
        <mxCell id="pjvYtTloe9TvyBzcQSmq-30" value="components" style="whiteSpace=wrap;html=1;rounded=1;strokeColor=#6c8ebf;fillColor=#dae8fc;" vertex="1" parent="pjvYtTloe9TvyBzcQSmq-1">
          <mxGeometry x="-40" y="460" width="120" height="60" as="geometry" />
        </mxCell>
        <mxCell id="pjvYtTloe9TvyBzcQSmq-31" value="layout : header, footer , landing" style="whiteSpace=wrap;html=1;rounded=1;strokeColor=#6c8ebf;fillColor=#dae8fc;" vertex="1" parent="pjvYtTloe9TvyBzcQSmq-1">
          <mxGeometry x="-40" y="600" width="120" height="60" as="geometry" />
        </mxCell>
      </root>
    </mxGraphModel>
  </diagram>
</mxfile>
